Coordinates
version=1
nRows=10
nColumns=40
inDegrees=yes

Units are S.I. units (second, meters, Newtons, ...)
Angles are in degrees.

endheader
time	pelvis_tilt	pelvis_list	pelvis_rotation	pelvis_tx	pelvis_ty	pelvis_tz	hip_flexion_r	hip_adduction_r	hip_rotation_r	knee_angle_r	knee_angle_r_beta	ankle_angle_r	subtalar_angle_r	mtp_angle_r	hip_flexion_l	hip_adduction_l	hip_rotation_l	knee_angle_l	knee_angle_l_beta	ankle_angle_l	subtalar_angle_l	mtp_angle_l	lumbar_extension	lumbar_bending	lumbar_rotation	arm_flex_r	arm_add_r	arm_rot_r	elbow_flex_r	pro_sup_r	wrist_flex_r	wrist_dev_r	arm_flex_l	arm_add_l	arm_rot_l	elbow_flex_l	pro_sup_l	wrist_flex_l	wrist_dev_l
      1.01000000	      1.91873281	     -0.36557706	      1.23330666	     -0.18504341	      0.88092343	     -1.44390828	     27.73948305	     -2.72093554	    -20.26436954	    -17.06341873	     -0.29781284	     -0.55321695	      4.03459710	     -2.71011119	    -15.21294588	      0.42615045	      5.36816621	    -18.94710178	     -0.33068931	      9.07273589	     -8.61499001	     -7.39023148	     -7.11817580	      3.40008544	     -7.75081654	     -4.46342587	     -9.39908778	     15.33196154	     10.01636808	     89.95437384	      0.00000000	      0.00000000	     18.63458732	     14.76906204	     -4.98026520	     45.85351900	     89.95437384	      0.00000000	      0.00000000
      1.02000000	      2.15318831	     -0.80825602	      1.63655833	     -0.16927297	      0.88011756	     -1.44345225	     27.41612040	     -2.31164446	    -19.53840072	    -18.07649583	     -0.31549437	     -0.37498445	      3.74050910	     -3.33446980	    -15.88415661	      1.24764121	      5.36721377	    -19.95829058	     -0.34833788	      8.03930495	     -9.12454489	     -7.65116403	     -7.10185359	      3.94480151	     -8.17463633	     -4.70228580	     -9.27401472	     15.14187291	      9.06431655	     89.95437384	      0.00000000	      0.00000000	     17.93990752	     14.70042564	     -3.88298483	     48.48046032	     89.95437384	      0.00000000	      0.00000000
      1.03000000	      2.29436837	     -1.06842210	      1.75531713	     -0.15336856	      0.87908666	     -1.44265142	     27.33996975	     -1.91971050	    -18.16886617	    -19.67991168	     -0.34347926	     -0.57227647	      2.89027069	     -3.31589808	    -16.37687246	      1.72081672	      5.16950229	    -21.19746362	     -0.36996553	      7.10815382	     -8.66351943	     -7.49032039	     -6.96448604	      4.24052810	     -8.07221155	     -5.27293531	     -9.26856637	     15.26614944	      8.63582173	     89.95437384	      0.00000000	      0.00000000	     17.46804107	     14.71025046	     -3.73596740	     50.70254511	     89.95437384	      0.00000000	      0.00000000
      1.04000000	      2.39861571	     -1.27096340	      1.91322495	     -0.13718978	      0.87810222	     -1.44200293	     27.21620121	     -1.57753915	    -16.89831756	    -21.37742443	     -0.37310644	     -1.28676383	      2.38606104	     -3.15998610	    -16.66195047	      2.05059791	      4.51992918	    -22.73754933	     -0.39684510	      5.99301236	     -8.06473137	     -7.18661018	     -6.75789760	      4.49039002	     -7.71705821	     -6.16436559	     -9.36203260	     15.24576298	      8.75318749	     89.95437384	      0.00000000	      0.00000000	     17.21543074	     14.36026823	     -3.54645094	     52.36816847	     89.95437384	      0.00000000	      0.00000000
      1.05000000	      2.69729222	     -1.48240268	      1.91264268	     -0.12071819	      0.87760543	     -1.44064429	     26.98452576	     -1.21673961	    -16.33085854	    -22.94179847	     -0.40040992	     -4.83979973	      0.29643424	     -2.40707151	    -16.89529010	      2.61660031	      5.33293547	    -24.65113570	     -0.43024348	      4.10261401	     -7.29373223	     -6.90042424	     -6.75844852	      4.67033532	     -7.85026205	     -6.23615050	     -9.18282644	     15.64667000	      7.77897101	     89.95437384	      0.00000000	      0.00000000	     16.11556920	     14.57227407	     -3.03059804	     54.96358817	     89.95437384	      0.00000000	      0.00000000
      1.06000000	      2.66633744	     -2.18440462	      1.86807290	     -0.10481013	      0.87702613	     -1.43879137	     26.88606846	     -0.04766177	    -14.56050915	    -23.81123452	     -0.41558444	     -7.11242577	     -1.59421444	     -1.79769015	    -16.26126346	      3.74819809	      6.12661173	    -27.35780962	     -0.47748385	      1.78667279	     -6.97013690	     -6.76323225	     -6.42463768	      5.37574502	     -7.64964929	     -6.56950260	     -9.14806028	     16.09150419	      7.37508101	     89.95437384	      0.00000000	      0.00000000	     15.34035875	     14.32786474	     -2.42775799	     56.76540903	     89.95437384	      0.00000000	      0.00000000
      1.07000000	      2.16614070	     -3.18083071	      1.67422321	     -0.08910371	      0.87575425	     -1.43579563	     27.41586730	      1.61205553	    -12.51472033	    -25.00214459	     -0.43636974	     -7.99165810	     -5.61209573	     -0.92578503	    -14.67533331	      5.65666769	      8.16809217	    -30.83904891	     -0.53824294	     -1.18709975	     -9.03047859	     -7.74238390	     -5.56125239	      6.29042243	     -7.14351158	     -7.17662536	     -9.20272355	     17.07304377	      7.48616030	     89.95437384	      0.00000000	      0.00000000	     14.60482010	     14.08091311	     -2.10935560	     58.25508312	     89.95437384	      0.00000000	      0.00000000
      1.08000000	      2.41142029	     -3.35233671	      1.69967498	     -0.07318040	      0.87606163	     -1.43451542	     27.22471124	      1.66086384	    -12.77062343	    -27.13374983	     -0.47357327	     -6.97001491	     -6.11619396	     -0.88840224	    -13.98932577	      6.16319906	      8.67174493	    -33.76658318	     -0.58933805	     -4.58521121	     -6.94021500	     -7.02471034	     -5.58432576	      6.43578397	     -6.86722814	     -7.55962391	     -9.16459299	     17.20384238	      7.53140866	     89.95437384	      0.00000000	      0.00000000	     13.98388011	     13.96231037	     -2.15259034	     59.63051600	     89.95437384	      0.00000000	      0.00000000
      1.09000000	      2.17918569	     -3.76838789	      1.74339070	     -0.05761764	      0.87598906	     -1.43305935	     27.30507893	      2.21153443	    -12.65451746	    -28.75623664	     -0.50189101	     -5.64011802	     -6.38406439	     -0.84428442	    -12.32724829	      7.06609219	      9.22200083	    -37.16937410	     -0.64872796	     -9.05898576	     -4.85879886	     -6.31550195	     -5.08978840	      6.84863165	     -6.64927551	     -7.74720261	     -9.09423612	     17.59009749	      7.25682761	     89.95437384	      0.00000000	      0.00000000	     13.16712325	     13.75988380	     -2.09142787	     60.93108211	     89.95437384	      0.00000000	      0.00000000
      1.10000000	      2.14211775	     -4.18072448	      1.82910252	     -0.04239671	      0.87641898	     -1.43154988	     26.92890751	      2.95142692	    -12.10946728	    -29.87394882	     -0.52139877	     -4.41709765	     -6.62876767	     -0.80334221	    -10.68981250	      7.94852596	      9.41356094	    -40.41697977	     -0.70540937	    -14.47388910	     -2.48644749	     -5.39067362	     -4.86863439	      7.23640968	     -6.39246428	     -7.93648374	     -9.05768246	     17.94817842	      7.35525146	     89.95437384	      0.00000000	      0.00000000	     12.51979098	     13.56630840	     -2.15377273	     61.91527110	     89.95437384	      0.00000000	      0.00000000
